<?xml version="1.0" standalone="no"?>
<!DOCTYPE svg PUBLIC "-//W3C//DTD SVG 20010904//EN"
 "http://www.w3.org/TR/2001/REC-SVG-20010904/DTD/svg10.dtd">
<svg version="1.0" xmlns="http://www.w3.org/2000/svg"
 width="960.000000pt" height="960.000000pt" viewBox="0 0 960.000000 960.000000"
 preserveAspectRatio="xMidYMid meet">
<metadata>
Created by potrace 1.15, written by Peter Selinger 2001-2017
</metadata>
<g transform="translate(0.000000,960.000000) scale(0.100000,-0.100000)"
fill="#000000" stroke="none">
<path d="M0 4800 l0 -4800 4800 0 4800 0 0 4800 0 4800 -4800 0 -4800 0 0
-4800z m4880 2441 c253 -41 507 -151 715 -310 126 -96 291 -282 379 -428 102
-170 210 -468 186 -513 -5 -8 -135 -141 -289 -295 l-281 -280 0 -1007 0 -1007
-150 -3 c-83 -2 -150 -1 -150 2 0 3 -1 400 -3 882 -1 483 -5 868 -8 855 -4
-12 -12 -62 -19 -112 -6 -49 -16 -112 -21 -140 -11 -65 -15 -90 -33 -210 -23
-151 -73 -471 -101 -640 -31 -191 -71 -446 -86 -552 l-12 -83 -164 0 c-161 0
-163 0 -167 23 -5 21 -54 375 -62 447 -2 19 -6 49 -10 65 -3 17 -7 55 -10 85
-3 30 -25 195 -49 365 -24 171 -46 324 -48 340 -2 17 -5 -275 -6 -647 l-1
-678 -145 0 -145 0 0 1388 0 1387 -145 145 -145 145 0 -1532 0 -1532 -160 -3
c-126 -2 -161 0 -165 10 -3 8 -5 399 -5 870 l0 857 -270 270 -270 270 0 75 c0
98 48 336 93 465 90 255 253 492 460 670 205 176 487 309 752 354 151 26 382
27 535 2z m1610 -1190 c47 -17 99 -38 117 -46 17 -8 36 -15 41 -15 15 0 17
-13 67 -430 25 -206 74 -607 109 -890 36 -283 72 -571 80 -640 9 -69 22 -179
31 -245 8 -66 17 -147 20 -180 4 -33 11 -89 16 -125 5 -36 9 -68 9 -72 0 -5
-69 -8 -154 -8 l-153 0 -6 38 c-4 20 -25 183 -47 362 -22 179 -42 330 -44 335
-2 6 -53 9 -133 7 l-130 -3 -46 -337 c-26 -185 -48 -350 -50 -367 l-4 -30
-153 -3 c-85 -1 -159 -1 -165 2 -12 4 -9 33 35 326 69 466 103 697 115 795 19
143 69 490 155 1065 14 94 40 271 45 316 11 82 26 180 30 201 l5 23 63 -24
c34 -13 100 -37 147 -55z m-3700 -1211 l0 -1120 308 -2 307 -3 3 -158 3 -157
-473 2 -473 3 -3 1202 -2 1202 152 75 c84 41 159 75 166 75 9 1 12 -229 12
-1119z m4702 829 c115 -42 113 -40 141 -131 14 -46 37 -121 52 -168 29 -95
139 -482 155 -549 l11 -43 69 203 c65 196 157 449 165 458 3 2 74 -22 160 -55
109 -41 155 -63 155 -74 0 -9 -15 -52 -33 -95 -55 -130 -168 -397 -187 -440
-47 -106 -109 -255 -125 -297 l-18 -47 73 -208 c39 -115 96 -275 125 -358 132
-367 163 -466 151 -471 -6 -2 -77 -3 -156 -2 l-144 3 -19 50 c-17 45 -38 111
-97 310 -88 294 -114 384 -118 408 -7 41 -17 33 -36 -30 -48 -154 -251 -710
-267 -730 -7 -8 -66 -12 -190 -13 -167 -1 -179 0 -179 18 0 10 4 22 8 28 5 5
15 25 22 44 23 59 267 632 305 715 7 17 22 53 33 80 11 28 34 81 51 119 18 38
30 75 27 83 -3 8 -2 12 3 9 4 -3 13 5 18 17 9 18 2 48 -34 152 -24 72 -82 245
-130 385 -47 140 -119 352 -159 469 -41 118 -74 223 -74 233 0 16 8 15 83 -13
45 -17 117 -44 159 -60z m-5420 -140 c20 -10 45 -31 56 -46 69 -98 82 -183 82
-520 l0 -263 -150 0 -150 0 0 193 c0 166 -3 198 -19 233 -10 23 -24 45 -31 49
-24 15 -82 6 -143 -23 -108 -50 -165 -113 -203 -222 -18 -51 -19 -89 -19 -550
0 -482 1 -496 21 -540 40 -85 98 -120 201 -120 71 0 132 34 163 90 24 43 25
52 28 263 l4 217 150 0 150 0 -5 -247 c-5 -266 -14 -327 -64 -427 -80 -160
-258 -239 -496 -222 -160 12 -277 62 -358 155 -52 58 -73 100 -99 192 -19 69
-20 102 -20 569 l0 495 26 95 c74 273 248 466 539 597 135 61 256 73 337 32z
m6108 -2327 c0 -5 -57 -67 -127 -138 -71 -71 -141 -144 -157 -161 l-29 -32
212 -212 c117 -116 210 -213 208 -215 -2 -2 -307 -4 -678 -4 l-674 0 -3 105
-3 105 -2164 0 -2165 0 0 -105 0 -105 -680 0 c-374 0 -680 2 -680 5 0 3 111
117 248 253 136 136 253 255 261 264 12 16 2 29 -90 123 -57 58 -105 110 -107
115 -2 7 1163 10 3312 10 1824 0 3316 -4 3316 -8z"/>
<path d="M4881 6206 l-284 -284 6 -49 c3 -26 24 -187 47 -358 23 -170 50 -382
61 -470 17 -139 42 -324 54 -405 2 -14 7 -54 10 -90 13 -127 54 -443 60 -448
3 -3 5 7 5 22 0 15 32 247 70 514 39 268 91 629 116 802 25 173 52 362 59 420
27 209 86 614 91 622 24 38 -51 -32 -295 -276z"/>
<path d="M6450 5152 c0 -33 -23 -222 -40 -332 -14 -85 -50 -348 -50 -360 0 -6
40 -10 90 -10 65 0 90 3 90 13 0 11 -9 96 -25 237 -3 25 -10 88 -15 140 -22
205 -38 332 -44 337 -3 4 -6 -8 -6 -25z"/>
<path d="M2710 2925 l0 -135 81 0 c71 0 80 2 77 18 -2 13 -15 18 -53 20 -61 4
-69 11 -60 51 6 30 9 31 57 31 42 0 49 3 46 18 -2 13 -15 18 -56 20 l-53 3 3
32 c3 31 5 32 56 35 44 3 52 6 52 23 0 17 -7 19 -75 19 l-75 0 0 -135z"/>
<path d="M3238 3053 l-28 -4 0 -130 0 -129 28 -2 c134 -7 192 35 192 139 0 65
-34 109 -95 123 -41 10 -50 10 -97 3z m117 -55 c30 -27 38 -90 16 -132 -16
-28 -58 -49 -93 -44 -22 3 -23 7 -26 87 -2 46 -1 90 2 98 9 21 72 16 101 -9z"/>
<path d="M3780 2960 c0 -69 5 -110 15 -129 19 -38 66 -54 116 -41 56 15 69 47
69 170 0 93 -1 100 -20 100 -19 0 -20 -7 -20 -90 0 -49 -5 -101 -12 -115 -16
-36 -54 -43 -81 -16 -19 19 -22 34 -24 119 -2 90 -3 97 -22 100 -20 3 -21 -1
-21 -98z"/>
<path d="M4394 3044 c-17 -8 -41 -33 -54 -55 -58 -105 26 -221 145 -202 26 4
35 11 35 24 0 16 -5 18 -37 14 -53 -8 -100 22 -109 69 -14 76 15 117 88 124
53 5 77 20 55 34 -20 13 -90 8 -123 -8z"/>
<path d="M4929 3033 c-6 -15 -24 -71 -40 -123 -16 -52 -31 -101 -34 -107 -3
-8 4 -13 19 -13 18 0 25 8 35 40 11 38 14 40 52 40 38 0 42 -3 56 -40 13 -31
21 -40 40 -40 19 0 23 4 19 18 -68 214 -83 247 -109 250 -22 3 -29 -2 -38 -25z"/>
<path d="M5367 3053 c-19 -19 -5 -33 33 -33 l40 0 0 -116 c0 -114 0 -115 23
-112 21 3 22 7 23 113 l2 110 36 3 c28 3 36 8 36 23 0 17 -8 19 -93 19 -52 0
-97 -3 -100 -7z"/>
<path d="M6351 3048 c-45 -24 -66 -64 -66 -128 0 -70 24 -109 78 -127 99 -33
187 65 158 175 -6 21 -22 49 -35 61 -30 28 -100 38 -135 19z m113 -71 c36 -74
-13 -170 -78 -153 -54 13 -75 119 -35 170 17 22 28 27 58 24 31 -3 39 -9 55
-41z"/>
<path d="M6877 3053 c-4 -3 -7 -64 -7 -135 0 -121 1 -128 20 -128 18 0 20 8
22 103 2 72 6 96 12 82 6 -11 32 -57 58 -102 40 -69 53 -83 74 -83 l25 0 -3
132 c-3 117 -5 133 -20 136 -16 3 -18 -7 -18 -99 l0 -103 -51 89 c-28 50 -56
96 -61 103 -11 13 -40 16 -51 5z"/>
</g>
</svg>
