<svg width="40" height="40" viewBox="0 0 40 40" xmlns="http://www.w3.org/2000/svg"><title>CACDEF4B-BC6F-43D9-B4AE-35D51E7A28C6</title><g fill="none" fill-rule="evenodd"><ellipse fill="#00ADF2" cx="20" cy="20" rx="20" ry="20"/><path d="M28.89 21.662v.1l-.05-.2s0 .05.05.1c.101-.552.151-1.105.151-1.658a9.347 9.347 0 0 0-.703-3.517c-.452-1.055-1.106-2.06-1.91-2.864-.803-.854-1.808-1.457-2.864-1.96a9.347 9.347 0 0 0-5.225-.553c.05 0 .05.05.1.05l-.2-.05h.1c-.754-.402-1.608-.603-2.513-.603a5.324 5.324 0 0 0-3.768 1.558 5.324 5.324 0 0 0-1.558 3.769c0 .904.251 1.809.653 2.613v-.1l.05.2c0-.05-.05-.05-.05-.1a8.18 8.18 0 0 0-.15 1.557c0 1.206.25 2.412.703 3.518.452 1.055 1.105 2.06 1.91 2.864.803.854 1.808 1.507 2.863 1.96a9.347 9.347 0 0 0 3.518.703c.553 0 1.055-.05 1.557-.15-.05 0-.05-.051-.1-.051l.201.05h-.1a5.36 5.36 0 0 0 2.612.704 5.324 5.324 0 0 0 3.769-1.558 5.324 5.324 0 0 0 1.558-3.769c.05-.954-.201-1.809-.603-2.613zm-8.843 3.87c-3.216 0-4.623-1.558-4.623-2.764a1.03 1.03 0 0 1 1.055-1.055c1.357 0 1.005 1.96 3.568 1.96 1.307 0 2.01-.704 2.01-1.458 0-.452-.201-.904-1.055-1.156l-2.864-.703c-2.312-.553-2.714-1.809-2.714-2.965 0-2.412 2.261-3.316 4.422-3.316 1.96 0 4.321 1.105 4.321 2.563 0 .603-.552 1.005-1.155 1.005-1.156 0-.955-1.608-3.317-1.608-1.155 0-1.809.552-1.809 1.306s.905 1.005 1.709 1.206l2.11.452c2.312.503 2.915 1.86 2.915 3.166 0 1.91-1.558 3.366-4.573 3.366z" fill="#FFF" fill-rule="nonzero"/></g></svg>